# xmcd
#
# Track frame offsets: 
#        150
#        18878
#        38883
#        60446
#        74698
#        89423
#        105336
#        125301
#        143371
#        159253
#        171410
#        185139
#        193738
#        215580
#        237603
#        268486
#        289175
#        317109
#
# Disc length: 4617 seconds
#
# Revision: 0
# Processed by: cddbd v1.5.2PL0 Copyright (c) Steve Scherf et al.
# Submitted via: ExactAudioCopy v0.99pb4
#
DISCID=10120712
DTITLE=Alvin Lee - Freefall  Unreleased Album
DYEAR=2004
DGENRE=Blues
TTITLE0=I Don.t Wanna Stop
TTITLE1=Take The Money
TTITLE2=One Lonely Hour
TTITLE3=Heartache
TTITLE4=Stealin
TTITLE5=Ridin Truckin
TTITLE6=No More Lonely Night
TTITLE7=City Lights
TTITLE8=Sooner Or Later
TTITLE9=Dustbin City
TTITLE10=So Sad (No Love Of His Own)
TTITLE11=Madness
TTITLE12=Midnight Special
TTITLE13=Snake Jam
TTITLE14=Break Jam
TTITLE15=Real Life Blues
TTITLE16=Shuffle It
TTITLE17=Somebody Callin Me
EXTD=
EXTT0=
EXTT1=
EXTT2=
EXTT3=
EXTT4=
EXTT5=
EXTT6=
EXTT7=
EXTT8=
EXTT9=
EXTT10=
EXTT11=
EXTT12=
EXTT13=
EXTT14=
EXTT15=
EXTT16=
EXTT17=
PLAYORDER=
